<svg xmlns="http://www.w3.org/2000/svg" viewBox="0 0 64 64" role="img" aria-label="Rent Renewal Tracker">
  <rect width="64" height="64" rx="8" fill="#146c5a"/>
  <path d="M17 15v7M47 15v7M14 25h36M17 19h30a4 4 0 0 1 4 4v25a4 4 0 0 1-4 4H17a4 4 0 0 1-4-4V23a4 4 0 0 1 4-4Z" fill="none" stroke="#fff" stroke-width="4" stroke-linecap="round"/>
  <path d="M23 38a10 10 0 0 1 17-7M41 29v7h-7M41 41a10 10 0 0 1-17 7M23 50v-7h7" fill="none" stroke="#a8e6cf" stroke-width="3" stroke-linecap="round" stroke-linejoin="round"/>
</svg>

